PathFileType	4	(X/Y/Z)	C:\Users\chris\Documents\GitHub\baseballds\vids\pitch5_Sports2D\pitch5_Sports2D_px_person06.trc
DataRate	CameraRate	NumFrames	NumMarkers	Units	OrigDataRate	OrigDataStartFrame	OrigNumFrames
30	30	7	22	m	30	37	149
Frame#	Time	Hip			RHip			RKnee			RAnkle			RBigToe			RSmallToe			RHeel			LHip			LKnee			LAnkle			LBigToe			LSmallToe			LHeel			Neck			Head			Nose			RShoulder			RElbow			RWrist			LShoulder			LElbow			LWrist		
		X1	Y1	Z1	X2	Y2	Z2	X3	Y3	Z3	X4	Y4	Z4	X5	Y5	Z5	X6	Y6	Z6	X7	Y7	Z7	X8	Y8	Z8	X9	Y9	Z9	X10	Y10	Z10	X11	Y11	Z11	X12	Y12	Z12	X13	Y13	Z13	X14	Y14	Z14	X15	Y15	Z15	X16	Y16	Z16	X17	Y17	Z17	X18	Y18	Z18	X19	Y19	Z19	X20	Y20	Z20	X21	Y21	Z21	X22	Y22	Z22
37	1.2333333333333334	841.3452141289896	553.2473324143424	0.0	862.953345460461	554.0465609841982	0.0	883.1799986945656	609.1603208913708	0.0	902.5167859001031	680.9920647151422	0.0	908.9838450839031	668.3413994420847	0.0	924.84691837353	680.2798965698514	0.0	897.7353589086295	689.8811239332215	0.0	818.822792318982	554.9069449754039	0.0	799.4521732812327	628.2608744569275	0.0	799.0479726363783	687.4109301753444	0.0	802.3844736888464	1022.7524010251161	0.0	838.2026809781646	1024.7225751968083	0.0	862.4058916902611	991.1015597048593	0.0	830.2769057090625	432.33651091775016	0.0	844.6538547148645	392.86767303090625	0.0	866.0637702785019	416.5564618528475	0.0	862.5339569663864	444.5555594765286	0.0	894.8583609012586	474.7975816281388	0.0	933.920100403392	505.03889461552205	0.0	800.0215613035003	452.753663970224	0.0	871.685584886317	478.4631098416587	0.0	916.1127732729997	497.4293700116383	0.0
38	1.2666666666666666	844.3844994410493	552.780962176043	0.0	868.2950831753733	553.2000079946743	0.0	889.5157699779262	603.7567701705019	0.0	909.8770656351511	672.4055110115532	0.0	916.6609860863045	657.4050159624259	0.0	933.9467185612699	669.8301344110706	0.0	904.5563027868168	680.889690070216	0.0	819.5551441579348	554.0093460057403	0.0	799.0331707606758	623.3808530535273	0.0	797.4919337996259	679.1337600164416	0.0	802.2364070436959	1021.6833150187173	0.0	837.8909012630752	1023.6310649679148	0.0	862.9867037394876	990.424530891527	0.0	832.7602653060194	436.87496208436335	0.0	846.7388195793543	400.26343989812693	0.0	867.4528321691397	422.2031989741281	0.0	869.1075738442099	447.9778840102483	0.0	903.4487976484037	474.6674132131152	0.0	940.8841464295618	506.10734286312805	0.0	798.789027938583	456.4026138861601	0.0	871.4080518121885	478.5801204098591	0.0	918.6300014015217	497.5227572916567	0.0
39	1.3	842.3632788631627	552.8085710342787	0.0	864.7171297704606	553.3256986309453	0.0	885.2419455289261	607.1709922292496	0.0	904.8815213589965	678.3235909440408	0.0	911.3124387320333	665.1184901923406	0.0	927.6562814883034	677.1004816627224	0.0	900.219243052399	687.0179442172212	0.0	819.1368620114827	554.2670425879573	0.0	799.3668421464804	626.6257702319458	0.0	798.5225349915711	684.895568064579	0.0	802.3201732660107	1022.522426180409	0.0	838.0404984111017	1024.5452482272203	0.0	862.6999410925196	990.6323575889522	0.0	831.256608086878	433.68204329976936	0.0	845.1409446222735	394.7986272479771	0.0	866.2826179134885	418.0392033474628	0.0	864.5842736295502	445.5440348594753	0.0	897.5901338011082	474.7446422739273	0.0	936.2993185180497	505.29769187226975	0.0	799.8062138382805	453.8469243857156	0.0	871.6919736751905	478.64059990887995	0.0	916.7006195968058	497.4952240400129	0.0
40	1.3333333333333333	823.0278455626222	555.2423515558271	0.0	830.6856960181184	557.8861044767843	0.0	844.8209480721447	641.2091148780047	0.0	857.8665500628039	733.3418839802673	0.0	862.0131483536798	735.5251148452724	0.0	869.3142376004079	744.1857749364294	0.0	857.2012131251072	744.5005200178347	0.0	814.6075087154927	559.3372430247715	0.0	802.136299333012	657.6708128161836	0.0	808.4138463987979	738.0389845687629	0.0	803.234403054648	1029.5655818831838	0.0	839.9150157921674	1031.8445908169308	0.0	859.192670461536	994.4820306185134	0.0	815.7369030317338	404.47947322190134	0.0	831.4779787119867	346.7168639111678	0.0	856.9805651274123	381.344254780524	0.0	822.4778459517537	423.47380173743113	0.0	842.6641358434139	475.5551322247504	0.0	892.0829206484084	498.31338792506045	0.0	808.0201175179012	430.38942400405404	0.0	873.6450854574327	478.15717732618816	0.0	900.2045607110445	496.96635141338004	0.0
41	1.3666666666666667	786.8815868253206	561.3823259635913	0.0	766.8496995895609	568.7427886764813	0.0	769.4491568067115	707.068772351918	0.0	770.5864269457522	837.366291608677	0.0	771.319579579909	868.0806871591111	0.0	761.2205355274835	870.8069919656241	0.0	776.3296119154008	853.5070813988254	0.0	806.2210810752402	570.8177545077468	0.0	807.268158053285	716.8990839821616	0.0	827.1174423735367	838.4179377583372	0.0	804.531881741781	1038.5716400258766	0.0	842.6884824166389	1040.9507224959164	0.0	854.0384882088873	1000.6854800985009	0.0	785.9795249281256	349.90557625469455	0.0	806.5207793789316	257.7782583959913	0.0	840.4858034598086	313.4980574168469	0.0	743.5527683969466	382.31738689482694	0.0	739.6683060364119	476.72792379451397	0.0	808.8876290839196	484.7581835192242	0.0	823.0941884609103	386.5694878040622	0.0	875.9209920481942	477.23180528847297	0.0	867.9515672662671	496.51106774134	0.0
42	1.4	763.824093772092	569.6047480240373	0.0	724.1336489376131	581.4729433181951	0.0	721.315734852076	759.8781451597077	0.0	716.7386210482532	916.0497680490805	0.0	717.8343030419792	968.5221025972093	0.0	693.4503182802897	966.6501059420582	0.0	726.1302133728086	936.5524235314252	0.0	802.9202201703131	583.9254264861189	0.0	811.4520468975924	762.5581384256254	0.0	840.3619049604399	914.9351568939844	0.0	802.3115497453588	1019.5988486873049	0.0	838.3494765134344	1020.8584756624098	0.0	862.2230161971438	992.7324481810488	0.0	765.325310332971	311.3686643448022	0.0	789.8198981707139	195.28514099639042	0.0	830.4615237091157	266.202708825244	0.0	688.4790271656244	353.2658761658583	0.0	668.6715660961802	475.0044956937868	0.0	753.2947579478565	470.63038273953146	0.0	835.1959255160567	355.9903630086711	0.0	870.456970801377	479.54238810888023	0.0	832.3930348342258	500.51213688862003	0.0
43	1.4333333333333333	787.6250047317699	576.0996493039099	0.0	758.6127862940634	588.0796717207232	0.0	768.7248238228957	750.4521242382251	0.0	776.8677354796409	892.1281334805833	0.0	786.4263117751533	940.7554282618995	0.0	763.206965854177	938.4819719783552	0.0	784.3860717563956	912.4777573323864	0.0	816.4433782684323	591.1502296429995	0.0	812.2105602555989	750.1169204258342	0.0	831.4827597778196	893.5461666061402	0.0	791.8543673543452	937.8758996438444	0.0	816.1547190642887	936.0776788104471	0.0	902.4504255412531	943.693608085246	0.0	781.3193907894374	331.682171100967	0.0	801.2077270351456	226.58250037776332	0.0	838.9563362108779	291.29140447533916	0.0	722.3124026264918	368.28094861803334	0.0	715.9057827255845	466.2065768953056	0.0	798.8218927574453	460.87863939880555	0.0	836.7003674630961	373.41827024565515	0.0	849.385323861498	490.22580847969596	0.0	803.0506411386989	512.4112223488021	0.0
